<svg width="79" height="65" viewBox="0 0 79 65" fill="none" xmlns="http://www.w3.org/2000/svg">
<path d="M61.1884 30.3131C61.8198 30.3131 62.3318 29.812 62.3318 29.1939C62.3318 28.5757 61.8198 28.0746 61.1884 28.0746C60.5569 28.0746 60.0449 28.5757 60.0449 29.1939C60.0449 29.812 60.5569 30.3131 61.1884 30.3131Z" fill="#D81F2B"/>
<path fill-rule="evenodd" clip-rule="evenodd" d="M1.97161 64.8092C-0.025359 65.7433 -0.025359 59.0277 0.00685021 57.9084C0.602721 45.7011 23.0365 11.366 31.1612 2.60512C35.2277 -1.76728 39.6725 -0.422544 41.597 5.04497C42.7968 8.48331 44.206 16.9302 44.7616 21.7133C45.2286 21.8018 45.6796 21.8743 46.1144 21.9548C49.7621 22.7037 54.9558 23.8391 57.9754 25.6106C58.4183 25.9327 58.1365 26.6332 57.597 26.5527C57.299 26.5124 56.9689 26.4239 55.9704 26.2064C52.1697 25.3851 49.5527 25.3771 45.0515 24.9261C45.6151 32.4228 45.9855 48.5033 36.9106 48.9945C29.6233 49.3971 24.4617 38.5023 24.9449 31.9316C25.5407 24.2417 31.3384 21.6005 37.7078 21.2704C37.0394 15.7143 36.1939 9.6509 35.4048 7.00169C35.1552 7.27547 34.8975 7.58145 34.7043 7.80692C27.7229 16.4551 4.23431 46.6915 2.05214 58.1419C1.66563 60.1791 0.965075 62.8928 1.97161 64.8092ZM38.1104 24.9261C37.3535 25.0228 36.6449 25.1596 35.9524 25.3207C28.359 27.1969 28.4879 33.9125 32.0389 39.4525C32.7153 40.4912 35.4048 43.7605 36.6368 43.1888C38.7224 42.1903 38.7948 33.985 38.674 31.8189C38.6579 30.7077 38.4325 28.1148 38.1104 24.9261ZM36.3067 6.22866C36.3228 6.21256 36.3469 6.21256 36.363 6.19646C36.3389 6.21256 36.3147 6.22061 36.3067 6.22866Z" fill="#D81F2B"/>
<path d="M51.107 29.4273C51.107 29.4273 54.03 25.7635 56.8886 27.366C59.7471 28.9684 57.6374 31.3357 56.3652 33.0106C55.5197 34.1218 50.5272 44.6945 59.8518 45.9748C69.1845 47.2552 66.6963 36.7791 64.5866 36.3443C62.4769 35.9175 60.3511 32.7771 61.6072 32.1168C62.8634 31.4565 67.7995 35.4505 68.9268 38.148C70.0541 40.8536 70.4728 48.2134 60.4477 50.1137C50.4226 52.0221 46.6702 40.3865 48.7396 34.1138C48.7396 34.1138 49.2389 31.7867 51.107 29.4273Z" fill="#D81F2B"/>
<path d="M5.75635 54.3897C5.75635 54.2689 5.86103 54.1642 5.98181 54.1642H7.10108C7.22187 54.1642 7.32655 54.2689 7.32655 54.3897V62.3373C7.32655 62.4581 7.22187 62.5627 7.10108 62.5627H5.98181C5.86103 62.5627 5.75635 62.4581 5.75635 62.3373V54.3897Z" fill="#808184"/>
<path d="M9.37158 54.2607C9.37158 54.14 9.47626 54.0433 9.59705 54.0433H9.7742C9.85472 54.0433 9.91914 54.0675 9.97551 54.1239L14.8713 59.3498H14.8955V54.3896C14.8955 54.2688 14.9921 54.1641 15.1209 54.1641H16.2241C16.3449 54.1641 16.4496 54.2688 16.4496 54.3896V62.4661C16.4496 62.5868 16.3449 62.6835 16.2241 62.6835H16.055C15.9745 62.6835 15.9101 62.6593 15.8537 62.6029L10.9418 57.1757H10.9176V62.3372C10.9176 62.458 10.821 62.5627 10.6922 62.5627H9.59705C9.47626 62.5627 9.37158 62.458 9.37158 62.3372V54.2607Z" fill="#808184"/>
<path d="M19.8641 55.6056H18.0282C17.8994 55.6056 17.8027 55.5009 17.8027 55.3801V54.3977C17.8027 54.2769 17.8994 54.1722 18.0282 54.1722H23.2703C23.3991 54.1722 23.4957 54.2769 23.4957 54.3977V55.3801C23.4957 55.5009 23.3991 55.6056 23.2703 55.6056H21.4343V62.3373C21.4343 62.4581 21.3296 62.5627 21.2089 62.5627H20.0896C19.9688 62.5627 19.8641 62.4581 19.8641 62.3373V55.6056Z" fill="#808184"/>
<path d="M24.8325 54.3897C24.8325 54.2689 24.9291 54.1642 25.058 54.1642H29.9457C30.0746 54.1642 30.1712 54.2689 30.1712 54.3897V55.372C30.1712 55.4928 30.0746 55.5975 29.9457 55.5975H26.3947V57.5623H29.3579C29.4787 57.5623 29.5834 57.6669 29.5834 57.7877V58.7862C29.5834 58.9151 29.4787 59.0117 29.3579 59.0117H26.3947V61.1133H29.9457C30.0746 61.1133 30.1712 61.218 30.1712 61.3388V62.3212C30.1712 62.442 30.0746 62.5466 29.9457 62.5466H25.058C24.9291 62.5466 24.8325 62.442 24.8325 62.3212V54.3897Z" fill="#808184"/>
<path d="M31.7412 54.3897C31.7412 54.2689 31.8378 54.1642 31.9667 54.1642H35.397C36.8383 54.1642 38.014 55.3157 38.014 56.749C38.014 57.8521 37.2812 58.754 36.2344 59.1727L37.8771 62.2246C37.9576 62.3775 37.8771 62.5708 37.6758 62.5708H36.4116C36.3069 62.5708 36.2425 62.5144 36.2183 62.4661L34.6239 59.2855H33.2953V62.3453C33.2953 62.4661 33.1906 62.5708 33.0698 62.5708H31.9667C31.8378 62.5708 31.7412 62.4661 31.7412 62.3453V54.3897ZM35.2762 57.989C35.9123 57.989 36.4679 57.4334 36.4679 56.7651C36.4679 56.129 35.9123 55.5975 35.2762 55.5975H33.3195V57.989H35.2762Z" fill="#808184"/>
<path d="M38.6742 62.2567L42.4104 54.1802C42.4426 54.1078 42.5071 54.0514 42.6117 54.0514H42.7325C42.8533 54.0514 42.9016 54.1078 42.9338 54.1802L46.6298 62.2567C46.7023 62.4097 46.6057 62.5707 46.4285 62.5707H45.3817C45.2046 62.5707 45.116 62.4983 45.0355 62.3292L44.4477 61.0327H40.8563L40.2685 62.3292C40.2202 62.45 40.1155 62.5707 39.9223 62.5707H38.8755C38.6983 62.5627 38.6017 62.4097 38.6742 62.2567ZM43.8598 59.6961L42.66 57.0549H42.6278L41.4522 59.6961H43.8598Z" fill="#808184"/>
<path d="M51.3243 54.0433C52.5402 54.0433 53.4099 54.4298 54.2312 55.1626C54.3359 55.2592 54.3359 55.4042 54.2393 55.5008L53.5065 56.2577C53.426 56.3543 53.3052 56.3543 53.2086 56.2577C52.7013 55.8148 52.0329 55.5491 51.3565 55.5491C49.8185 55.5491 48.6832 56.8375 48.6832 58.3433C48.6832 59.841 49.8347 61.1133 51.3726 61.1133C52.0893 61.1133 52.7013 60.8395 53.2086 60.4288C53.3052 60.3483 53.434 60.3564 53.5065 60.4288L54.2473 61.1938C54.3439 61.2743 54.3198 61.4354 54.2393 61.5159C53.426 62.305 52.3872 62.6835 51.3243 62.6835C48.9247 62.6835 46.9922 60.7751 46.9922 58.3755C46.9922 55.9759 48.9247 54.0433 51.3243 54.0433Z" fill="#808184"/>
<path d="M57.0975 55.6056H55.2616C55.1328 55.6056 55.0361 55.5009 55.0361 55.3801V54.3977C55.0361 54.2769 55.1328 54.1722 55.2616 54.1722H60.5037C60.6325 54.1722 60.7291 54.2769 60.7291 54.3977V55.3801C60.7291 55.5009 60.6325 55.6056 60.5037 55.6056H58.6677V62.3373C58.6677 62.4581 58.563 62.5627 58.4423 62.5627H57.323C57.2022 62.5627 57.0975 62.4581 57.0975 62.3373V55.6056Z" fill="#808184"/>
<path d="M62.0659 54.3897C62.0659 54.2689 62.1706 54.1642 62.2914 54.1642H63.4107C63.5314 54.1642 63.6361 54.2689 63.6361 54.3897V62.3373C63.6361 62.4581 63.5314 62.5627 63.4107 62.5627H62.2914C62.1706 62.5627 62.0659 62.4581 62.0659 62.3373V54.3897Z" fill="#808184"/>
<path d="M64.6668 54.4782C64.5944 54.3252 64.691 54.1642 64.8681 54.1642H66.0921C66.1968 54.1642 66.2692 54.2367 66.2934 54.293L68.6125 59.4546H68.6688L70.9879 54.293C71.012 54.2367 71.0845 54.1642 71.1892 54.1642H72.4131C72.5903 54.1642 72.6869 54.3172 72.6145 54.4782L68.8943 62.5547C68.8621 62.6272 68.7977 62.6835 68.693 62.6835H68.5722C68.4675 62.6835 68.4031 62.6272 68.3709 62.5547L64.6668 54.4782Z" fill="#808184"/>
<path d="M73.6616 54.3897C73.6616 54.2689 73.7582 54.1642 73.8871 54.1642H78.7748C78.9037 54.1642 79.0003 54.2689 79.0003 54.3897V55.372C79.0003 55.4928 78.9037 55.5975 78.7748 55.5975H75.2238V57.5623H78.187C78.3078 57.5623 78.4125 57.6669 78.4125 57.7877V58.7862C78.4125 58.9151 78.3078 59.0117 78.187 59.0117H75.2238V61.1133H78.7748C78.9037 61.1133 79.0003 61.218 79.0003 61.3388V62.3212C79.0003 62.442 78.9037 62.5466 78.7748 62.5466H73.8871C73.7582 62.5466 73.6616 62.442 73.6616 62.3212V54.3897Z" fill="#808184"/>
</svg>
